<svg xmlns="http://www.w3.org/2000/svg" width="18.421" height="25" viewBox="0 0 18.421 25">
  <path id="biotech" d="M200,201v-1.974h6.842v-3.421h-.493A6.29,6.29,0,0,1,200,189.257a6.224,6.224,0,0,1,1.151-3.651,6.062,6.062,0,0,1,3.026-2.3,3.31,3.31,0,0,0,.016.987,3.358,3.358,0,0,0,.313.954,3.587,3.587,0,0,0-1.875,1.579,4.716,4.716,0,0,0-.658,2.434,4.38,4.38,0,0,0,4.375,4.375h11.414v1.974h-7.632v3.421h8.289V201Zm12.5-12.072-.461-1.217-1.414.526L209.8,186a3.067,3.067,0,0,0,.691-1.036,3.291,3.291,0,0,0,.23-1.234,3.185,3.185,0,0,0-.855-2.22,3.247,3.247,0,0,0-2.138-1.069l-.724-1.941,1.349-.493-.461-1.217,2.171-.789.461,1.217,1.316-.461,3.717,9.7-1.414.493.461,1.217Zm-5.066-3.553a1.629,1.629,0,1,1,1.168-.477A1.588,1.588,0,0,1,207.434,185.375Z" transform="translate(-200 -176)" fill="#ec54a5"/>
</svg>
