<svg id="call_menu" xmlns="http://www.w3.org/2000/svg" width="24" height="24" viewBox="0 0 24 24">
  <g id="call">
    <path id="Vector" d="M6.52,15.48q-.54-.48-1.05-.99a28.414,28.414,0,0,1-2.79-3.27A17.828,17.828,0,0,1,.72,7.81,8.423,8.423,0,0,1,0,4.54,5.173,5.173,0,0,1,.36,2.61,4.6,4.6,0,0,1,1.51.94,2.93,2.93,0,0,1,3.59,0,1.879,1.879,0,0,1,4.4.18a1.63,1.63,0,0,1,.67.56L7.39,4.01a3.422,3.422,0,0,1,.4.7,1.581,1.581,0,0,1,.14.61,1.357,1.357,0,0,1-.21.71,3.4,3.4,0,0,1-.56.71l-.76.79a.535.535,0,0,0-.16.4.908.908,0,0,0,.03.23c.03.08.06.14.08.2a8.3,8.3,0,0,0,.93,1.28c.45.52.93,1.05,1.45,1.58.36.35.71.69,1.06.99Z" transform="translate(2 2)" fill="#7e7e7e" opacity="0.4"/>
    <path id="Vector-2" data-name="Vector" d="M12.22,5.14a2.442,2.442,0,0,1-.1.24,4.126,4.126,0,0,1-.68,1.02A4.508,4.508,0,0,1,9.8,7.58c-.01,0-.02.01-.03.01a5.052,5.052,0,0,1-1.92.37,8.334,8.334,0,0,1-3.26-.73A17.564,17.564,0,0,1,1.15,5.25C.76,4.96.37,4.67,0,4.36L3.27,1.09a5.618,5.618,0,0,0,.74.48c.05.02.11.05.18.08a.69.69,0,0,0,.25.04.55.55,0,0,0,.41-.17L5.61.77A3.068,3.068,0,0,1,6.33.21,1.332,1.332,0,0,1,7.04,0a1.6,1.6,0,0,1,.61.13,3.868,3.868,0,0,1,.7.39l3.31,2.35a1.517,1.517,0,0,1,.55.64,2.052,2.052,0,0,1,.16.78A2.54,2.54,0,0,1,12.22,5.14Z" transform="translate(9.6 14.04)" fill="#7e7e7e"/>
    <path id="Vector-3" data-name="Vector" d="M24,0V24H0V0Z" fill="#7e7e7e" opacity="0"/>
  </g>
</svg>
