<svg xmlns="http://www.w3.org/2000/svg" width="17" height="17" viewBox="0 0 17 17">
  <path id="call" d="M14.82,17c-.073,0-.148,0-.222-.011A16.3,16.3,0,0,1,.011,2.4,2.117,2.117,0,0,1,.552.753,2.3,2.3,0,0,1,2.258,0H5.019A2.324,2.324,0,0,1,7.227,1.591l.9,2.685A2.317,2.317,0,0,1,7.56,6.658l-.432.432a9.183,9.183,0,0,0,2.79,2.775l.424-.425a2.33,2.33,0,0,1,2.382-.562l2.685.9A2.324,2.324,0,0,1,17,11.981v2.761A2.223,2.223,0,0,1,14.82,17ZM2.258,1.552a.719.719,0,0,0-.544.23.609.609,0,0,0-.159.467,14.757,14.757,0,0,0,13.2,13.2l.057,0a.621.621,0,0,0,.441-.193.73.73,0,0,0,.2-.513V11.981a.776.776,0,0,0-.531-.736l-2.685-.895a.776.776,0,0,0-.794.187l-.429.43a1.558,1.558,0,0,1-1.094.454,1.514,1.514,0,0,1-.859-.266A10.729,10.729,0,0,1,5.822,7.931,1.538,1.538,0,0,1,6.024,6l.439-.439a.769.769,0,0,0,.186-.794L5.755,2.083a.773.773,0,0,0-.735-.531ZM16.224,6.207a.777.777,0,0,1-.776-.776,3.884,3.884,0,0,0-3.88-3.88.776.776,0,0,1,0-1.552A5.438,5.438,0,0,1,17,5.431.777.777,0,0,1,16.224,6.207Zm-3.1,0a.777.777,0,0,1-.776-.776.777.777,0,0,0-.776-.776.776.776,0,0,1,0-1.553A2.33,2.33,0,0,1,13.9,5.431.777.777,0,0,1,13.12,6.207Z" transform="translate(0)" opacity="0.8"/>
</svg>
