<svg xmlns="http://www.w3.org/2000/svg" width="11.842" height="11.846" viewBox="0 0 11.842 11.846">
  <path id="shopping_cart_FILL1_wght400_GRAD0_opsz24" d="M43.554,187.846a1.188,1.188,0,1,1,.837-.348A1.141,1.141,0,0,1,43.554,187.846Zm5.923,0a1.188,1.188,0,1,1,.837-.348A1.141,1.141,0,0,1,49.477,187.846Zm-5.923-2.961a1.1,1.1,0,0,1-1.007-.585,1.12,1.12,0,0,1-.03-1.162l.8-1.451-2.132-4.5h-.607a.549.549,0,0,1-.415-.17.587.587,0,0,1-.163-.422.582.582,0,0,1,.592-.592h.962a.6.6,0,0,1,.311.089.552.552,0,0,1,.222.252l.4.844h8.736a.556.556,0,0,1,.548.3.662.662,0,0,1-.015.622l-2.1,3.791a1.205,1.205,0,0,1-.429.459,1.141,1.141,0,0,1-.607.163H44.205l-.652,1.185h6.53a.549.549,0,0,1,.415.17.587.587,0,0,1,.163.422.582.582,0,0,1-.592.592Z" transform="translate(-40 -176)" fill="#ec54a5"/>
</svg>
