<svg xmlns="http://www.w3.org/2000/svg" width="17.868" height="17.384" viewBox="0 0 17.868 17.384">
  <path id="forum_FILL1_wght400_GRAD0_opsz48" d="M80,188.6V176.938a.929.929,0,0,1,.29-.625.831.831,0,0,1,.6-.313H92.485a.861.861,0,0,1,.625.3.912.912,0,0,1,.29.637v7.951a.929.929,0,0,1-.29.625.849.849,0,0,1-.625.313H83.574l-2.993,2.993A.33.33,0,0,1,80,188.6Zm4.489,1.7a.866.866,0,0,1-.614-.313.914.914,0,0,1-.3-.625v-2.189H94.741v-7.594h2.233a.831.831,0,0,1,.6.313.949.949,0,0,1,.29.648v12.507a.33.33,0,0,1-.581.223l-2.971-2.97Z" transform="translate(-80 -176)" fill="#fff"/>
</svg>
