<svg xmlns="http://www.w3.org/2000/svg" width="24" height="24" viewBox="0 0 24 24">
  <g id="close-circle" transform="translate(-236 -252)">
    <path id="Vector" d="M10.75,21.5A10.75,10.75,0,1,1,21.5,10.75,10.759,10.759,0,0,1,10.75,21.5Zm0-20A9.25,9.25,0,1,0,20,10.75,9.261,9.261,0,0,0,10.75,1.5Z" transform="translate(237.25 253.25)" fill="#292d32"/>
    <path id="Vector-2" data-name="Vector" d="M.747,7.157a.742.742,0,0,1-.53-.22.754.754,0,0,1,0-1.06L5.878.218a.75.75,0,1,1,1.06,1.06l-5.66,5.66A.725.725,0,0,1,.747,7.157Z" transform="translate(244.423 260.422)" fill="#292d32"/>
    <path id="Vector-3" data-name="Vector" d="M6.407,7.157a.742.742,0,0,1-.53-.22L.218,1.277A.75.75,0,0,1,1.277.218l5.66,5.66a.754.754,0,0,1,0,1.06A.742.742,0,0,1,6.407,7.157Z" transform="translate(244.423 260.422)" fill="#292d32"/>
    <path id="Vector-4" data-name="Vector" d="M0,0H24V24H0Z" transform="translate(236 252)" fill="none" opacity="0"/>
  </g>
</svg>
