<svg xmlns="http://www.w3.org/2000/svg" width="16.385" height="15.896" viewBox="0 0 16.385 15.896">
  <g id="Group_114" data-name="Group 114" transform="translate(0)">
    <path id="Path_593" data-name="Path 593" d="M46.558,179.262H52.33q1.3,0,2.6,0c.522,0,.77.183.757.554-.011.351-.267.532-.753.532-2.689,0-5.377,0-8.066-.006a.44.44,0,0,0-.47.284,1.833,1.833,0,0,1-3.277.013.459.459,0,0,0-.5-.3c-.892.013-1.784,0-2.676.007-.287,0-.547-.1-.6-.387a.82.82,0,0,1,.183-.574c.08-.1.3-.119.463-.121.892-.011,1.784,0,2.675-.015a.512.512,0,0,0,.382-.208,1.828,1.828,0,0,1,1.737-1.087,1.758,1.758,0,0,1,1.666,1.121C46.479,179.137,46.517,179.19,46.558,179.262Z" transform="translate(-39.301 -177.957)" fill="#343434"/>
    <path id="Path_594" data-name="Path 594" d="M43.746,258.643c-1.421,0-2.842,0-4.264,0a.582.582,0,0,1-.624-.357c-.146-.369.13-.721.595-.727.9-.012,1.809-.005,2.713-.005,1.925,0,3.85,0,5.775.006a.491.491,0,0,0,.526-.317,1.832,1.832,0,0,1,3.238-.016.523.523,0,0,0,.564.334c.749-.019,1.5-.01,2.248,0,.447,0,.692.21.685.558s-.23.521-.67.524c-.788.005-1.576.008-2.364,0a.38.38,0,0,0-.41.254,1.84,1.84,0,0,1-3.313.025.44.44,0,0,0-.474-.281C46.563,258.647,45.155,258.643,43.746,258.643Z" transform="translate(-38.819 -250.164)" fill="#343434"/>
    <path id="Path_595" data-name="Path 595" d="M46.02,335.733h5.025l6.744,0c.448,0,.7.2.692.547s-.244.54-.7.54H46.019c-.561,1.078-1.293,1.479-2.242,1.247a1.845,1.845,0,0,1,.008-3.584C44.716,334.253,45.45,334.66,46.02,335.733Z" transform="translate(-42.096 -322.233)" fill="#343434"/>
  </g>
</svg>
