<svg xmlns="http://www.w3.org/2000/svg" width="19.05" height="19.434" viewBox="0 0 19.05 19.434">
  <g id="Google__G__Logo" transform="translate(0 0)">
    <path id="Path_96" data-name="Path 96" d="M281.433,225.074a11.43,11.43,0,0,0-.168-1.974H272.1v3.742h5.248a4.5,4.5,0,0,1-1.942,2.953v2.428h3.131A9.49,9.49,0,0,0,281.433,225.074Z" transform="translate(-262.383 -215.134)" fill="#4285f4"/>
    <path id="Path_97" data-name="Path 97" d="M37.583,332.155a9.3,9.3,0,0,0,6.441-2.346l-3.131-2.428a5.893,5.893,0,0,1-8.762-3.081H28.9v2.5A9.718,9.718,0,0,0,37.583,332.155Z" transform="translate(-27.867 -312.72)" fill="#34a853"/>
    <path id="Path_98" data-name="Path 98" d="M4.211,156.223a5.82,5.82,0,0,1,0-3.72V150H.984a9.725,9.725,0,0,0,0,8.726Z" transform="translate(0.05 -144.644)" fill="#fbbc04"/>
    <path id="Path_99" data-name="Path 99" d="M37.583,3.828a5.28,5.28,0,0,1,3.727,1.457L44.085,2.51a9.339,9.339,0,0,0-6.5-2.528A9.715,9.715,0,0,0,28.9,5.338l3.228,2.5a5.812,5.812,0,0,1,5.456-4.013Z" transform="translate(-27.867 0.018)" fill="#ea4335"/>
  </g>
</svg>
