<svg xmlns="http://www.w3.org/2000/svg" width="25" height="25" viewBox="0 0 25 25">
  <path id="grid_view_FILL1_wght400_GRAD0_opsz48" d="M122.083,227.458A2.089,2.089,0,0,1,120,225.375v-7.292A2.089,2.089,0,0,1,122.083,216h7.292a2.089,2.089,0,0,1,2.083,2.083v7.292a2.089,2.089,0,0,1-2.083,2.083Zm0,13.542A2.089,2.089,0,0,1,120,238.917v-7.292a2.089,2.089,0,0,1,2.083-2.083h7.292a2.089,2.089,0,0,1,2.083,2.083v7.292A2.089,2.089,0,0,1,129.375,241Zm13.542-13.542a2.089,2.089,0,0,1-2.083-2.083v-7.292A2.089,2.089,0,0,1,135.625,216h7.292A2.089,2.089,0,0,1,145,218.083v7.292a2.089,2.089,0,0,1-2.083,2.083Zm0,13.542a2.089,2.089,0,0,1-2.083-2.083v-7.292a2.089,2.089,0,0,1,2.083-2.083h7.292A2.089,2.089,0,0,1,145,231.625v7.292A2.089,2.089,0,0,1,142.917,241Z" transform="translate(-120 -216)" fill="#9a9a9a"/>
</svg>
