<svg xmlns="http://www.w3.org/2000/svg" width="20.02" height="19.998" viewBox="0 0 20.02 19.998">
  <g id="home_menu" transform="translate(-1.99 -2.002)">
    <g id="home-2">
      <path id="Vector" d="M12.29.788A4.853,4.853,0,0,0,6.8.918L1.79,4.828A5.153,5.153,0,0,0,0,8.468v6.9A4.631,4.631,0,0,0,4.62,20H15.4a4.622,4.622,0,0,0,4.62-4.62V8.6a5.1,5.1,0,0,0-1.97-3.78Z" transform="translate(1.99 2.002)" fill="#ffa827"/>
      <path id="Vector-2" data-name="Vector" d="M0,3.75v-3A.755.755,0,0,1,.75,0,.755.755,0,0,1,1.5.75v3a.755.755,0,0,1-.75.75A.755.755,0,0,1,0,3.75Z" transform="translate(11.25 14.25)" fill="#f9f9f9"/>
    </g>
  </g>
</svg>
