<svg id="Iconly_Bulk_Home" data-name="Iconly/Bulk/Home" xmlns="http://www.w3.org/2000/svg" width="19.615" height="20.647" viewBox="0 0 19.615 20.647">
  <g id="Home">
    <path id="Home-2" data-name="Home" d="M12.756,19.39V16.224A1.464,1.464,0,0,0,11.3,14.765H8.329a1.464,1.464,0,0,0-1.47,1.459h0v3.157a1.271,1.271,0,0,1-1.266,1.266H3.568a3.572,3.572,0,0,1-2.522-1.032A3.52,3.52,0,0,1,0,17.114V8.12A2.553,2.553,0,0,1,.924,6.157L7.8.7A3.216,3.216,0,0,1,11.887.77l6.729,5.387a2.554,2.554,0,0,1,1,1.964v8.985a3.555,3.555,0,0,1-3.568,3.542H14.069a1.271,1.271,0,0,1-.9-.365,1.253,1.253,0,0,1-.374-.892Z" transform="translate(0 0)" fill="#ffa827"/>
  </g>
</svg>
