<svg xmlns="http://www.w3.org/2000/svg" width="21.464" height="30" viewBox="0 0 21.464 30">
  <path id="laser" d="M147.77,100.563a2.294,2.294,0,1,1,1.609-.672A2.2,2.2,0,0,1,147.77,100.563Zm-2.312,19.188a.908.908,0,0,1-.937-.937v-14.5q-1.719-.156-3.438-.391t-3.312-.578a.918.918,0,0,1-.578-.422.941.941,0,0,1-.109-.734.977.977,0,0,1,.422-.594.9.9,0,0,1,.734-.125,35.379,35.379,0,0,0,4.7.75q2.391.219,4.828.219t4.828-.219a35.379,35.379,0,0,0,4.7-.75.986.986,0,0,1,.75.109.915.915,0,0,1,.438.609.889.889,0,0,1-.125.719.962.962,0,0,1-.594.438q-1.594.344-3.312.578t-3.438.391v14.5a.938.938,0,1,1-1.875,0v-6.687h-2.75v6.687a.909.909,0,0,1-.937.938ZM142.676,126a1.126,1.126,0,1,1,.859-.328A1.162,1.162,0,0,1,142.676,126Zm5.125,0a1.126,1.126,0,1,1,.859-.328A1.162,1.162,0,0,1,147.8,126Zm5.125,0a1.126,1.126,0,1,1,.859-.328A1.162,1.162,0,0,1,152.926,126Z" transform="translate(-137.053 -96)" fill="#ec54a5"/>
</svg>
