<svg xmlns="http://www.w3.org/2000/svg" width="25" height="25" viewBox="0 0 25 25">
  <path id="table_rows_FILL1_wght400_GRAD0_opsz48" d="M145,221.9a1.023,1.023,0,0,1-1.042,1.042H121.042A1.023,1.023,0,0,1,120,221.9v-4.861A1.023,1.023,0,0,1,121.042,216h22.917A1.023,1.023,0,0,1,145,217.042Zm0,9.028a1.023,1.023,0,0,1-1.042,1.042H121.042A1.023,1.023,0,0,1,120,230.931v-4.861a1.023,1.023,0,0,1,1.042-1.042h22.917A1.023,1.023,0,0,1,145,226.069Zm0,9.028A1.023,1.023,0,0,1,143.958,241H121.042A1.023,1.023,0,0,1,120,239.958V235.1a1.023,1.023,0,0,1,1.042-1.042h22.917A1.023,1.023,0,0,1,145,235.1Z" transform="translate(-120 -216)" fill="#fccfda"/>
</svg>
