<svg xmlns="http://www.w3.org/2000/svg" width="16.244" height="20" viewBox="0 0 16.244 20">
  <path id="location_on_FILL1_wght400_GRAD0_opsz48" d="M168.124,185.9a1.78,1.78,0,1,0-1.256-.52A1.706,1.706,0,0,0,168.124,185.9Zm.01,10.1a1,1,0,0,1-.317-.051.9.9,0,0,1-.279-.152,32.42,32.42,0,0,1-5.66-6.165A9.763,9.763,0,0,1,160,184.325a7.852,7.852,0,0,1,2.449-6.066,8.252,8.252,0,0,1,11.345,0,7.851,7.851,0,0,1,2.449,6.066,9.769,9.769,0,0,1-1.878,5.3,32.372,32.372,0,0,1-5.66,6.167.94.94,0,0,1-.266.152A.885.885,0,0,1,168.135,196Z" transform="translate(-160 -176)" fill="#9a9a9a"/>
</svg>
