<svg xmlns="http://www.w3.org/2000/svg" width="12.995" height="16" viewBox="0 0 12.995 16">
  <path id="location_on_FILL1_wght400_GRAD0_opsz48" d="M166.5,183.919a1.424,1.424,0,1,0-1.005-.416A1.364,1.364,0,0,0,166.5,183.919Zm.008,8.081a.8.8,0,0,1-.254-.041.719.719,0,0,1-.223-.122,25.936,25.936,0,0,1-4.528-4.932,7.81,7.81,0,0,1-1.5-4.246,6.281,6.281,0,0,1,1.959-4.853,6.6,6.6,0,0,1,9.076,0,6.281,6.281,0,0,1,1.959,4.853,7.815,7.815,0,0,1-1.5,4.244,25.9,25.9,0,0,1-4.528,4.934.752.752,0,0,1-.213.122A.708.708,0,0,1,166.508,192Z" transform="translate(-160 -176)" fill="#fff"/>
</svg>
