<svg xmlns="http://www.w3.org/2000/svg" width="24" height="24" viewBox="0 0 24 24">
  <g id="vuesax_outline_logout" data-name="vuesax/outline/logout" transform="translate(-364 -444)">
    <g id="logout">
      <path id="Vector" d="M.748,6.617a.742.742,0,0,1-.53-.22.754.754,0,0,1,0-1.06l2.03-2.03L.218,1.277A.75.75,0,0,1,1.277.218l2.56,2.56a.754.754,0,0,1,0,1.06L1.277,6.4A.742.742,0,0,1,.748,6.617Z" transform="translate(380.693 452.753)" fill="#fff"/>
      <path id="Vector-2" data-name="Vector" d="M10.92,1.5H.75A.755.755,0,0,1,0,.75.755.755,0,0,1,.75,0H10.92a.755.755,0,0,1,.75.75A.755.755,0,0,1,10.92,1.5Z" transform="translate(373.01 455.31)" fill="#fff"/>
      <path id="Vector-3" data-name="Vector" d="M8.75,17.5A8.374,8.374,0,0,1,0,8.75,8.374,8.374,0,0,1,8.75,0,.755.755,0,0,1,9.5.75a.755.755,0,0,1-.75.75A6.935,6.935,0,0,0,1.5,8.75,6.935,6.935,0,0,0,8.75,16a.75.75,0,0,1,0,1.5Z" transform="translate(367.01 447.25)" fill="#fff"/>
      <path id="Vector-4" data-name="Vector" d="M0,0H24V24H0Z" transform="translate(364 444)" fill="none" opacity="0"/>
    </g>
  </g>
</svg>
