<svg xmlns="http://www.w3.org/2000/svg" xmlns:xlink="http://www.w3.org/1999/xlink" width="20.144" height="24.162" viewBox="0 0 20.144 24.162">
  <defs>
    <clipPath id="clip-path">
      <rect id="Rectangle_38" data-name="Rectangle 38" width="20.144" height="24.162" fill="#fff"/>
    </clipPath>
  </defs>
  <g id="Group_91" data-name="Group 91" clip-path="url(#clip-path)">
    <path id="Path_20" data-name="Path 20" d="M6.418,3.5c1.249,1.262,2.427,2.451,3.614,3.649l1.306-1.3.685-.682c.161-.161.2-.313.016-.5-.966-.969-1.916-1.954-2.89-2.916-.438-.432-.459-.487-.009-.925.23-.225.481-.431.7-.669.2-.221.352-.19.541.005.569.587,1.143,1.167,1.72,1.746,1.461,1.467,2.927,2.928,4.383,4.4.785.792,1.563,1.592,2.326,2.4a4.861,4.861,0,0,1,1.265,4.276,5.055,5.055,0,0,1-1.557,2.852c-1.432,1.428-2.842,2.879-4.26,4.32-.073.073-.148.145-.224.216a.415.415,0,0,1-.677-.023c-.672-.7-1.357-1.377-2.043-2.057a.34.34,0,0,1-.009-.561q.408-.4.805-.8a.286.286,0,0,1,.471,0c.276.275.565.538.845.81a.354.354,0,0,0,.568-.006c1.17-1.174,2.377-2.313,3.5-3.531a2.92,2.92,0,0,0,.669-2.83,3.656,3.656,0,0,0-1.108-1.742c-1.015-.985-2.012-1.988-3.018-2.983-.349-.344-.355-.346-.705,0q-2.537,2.539-5.069,5.082c-.336.337-.331.472,0,.8.518.523,1.044,1.039,1.551,1.573.188.2.327.237.538.028.522-.519,1.068-1.013,1.592-1.53.36-.356.347-.546,0-.9-.234-.237-.457-.484-.685-.727a.3.3,0,0,1-.016-.459q.44-.462.89-.914a.286.286,0,0,1,.453.023q1.107,1.138,2.212,2.277c.226.231.073.387-.091.551q-2.324,2.338-4.646,4.679c-.609.611-1.224,1.217-1.833,1.828-.3.3-.293.484.008.788.963.973,1.921,1.952,2.894,2.914.226.224.234.382,0,.592-.274.244-.522.519-.786.775a.314.314,0,0,1-.506,0c-1.085-1.092-2.181-2.174-3.264-3.267C4.97,19.157,3.4,17.524,1.784,15.939A5.732,5.732,0,0,1,.4,14.027a4.745,4.745,0,0,1,.144-4.14,6.249,6.249,0,0,1,1.045-1.4C3.117,6.9,4.671,5.351,6.211,3.785a2.4,2.4,0,0,0,.207-.29m.043,2.87a1.059,1.059,0,0,0-.111.088Q4.752,8.028,3.157,9.6a3.822,3.822,0,0,0-.975,1.32,2.882,2.882,0,0,0,.477,3.17C3.8,15.34,5.032,16.5,6.221,17.7a.354.354,0,0,0,.586,0c.548-.558,1.1-1.108,1.654-1.664a.375.375,0,0,0,.009-.581c-.957-.962-1.905-1.934-2.89-2.866-.46-.436-.483-.486-.028-.931.969-.949,1.918-1.916,2.878-2.873.139-.139.22-.3.062-.45C7.832,7.682,7.16,7.04,6.461,6.365" transform="translate(0 0)" fill="#fff"/>
  </g>
</svg>
