<svg id="logout" xmlns="http://www.w3.org/2000/svg" width="24" height="24" viewBox="0 0 24 24">
  <g id="login">
    <path id="Vector" d="M0,14.79A4.835,4.835,0,0,0,5.2,20H7.79a4.832,4.832,0,0,0,5.2-5.2V5.2A4.819,4.819,0,0,0,7.8,0H5.2A4.832,4.832,0,0,0,0,5.2Z" transform="translate(9 2)" fill="#7e7e7e" opacity="0.4"/>
    <path id="Vector-2" data-name="Vector" d="M13.78,3.575a.754.754,0,0,1,0,1.06l-3.35,3.35a.75.75,0,0,1-1.06-1.06l2.07-2.07H.75a.75.75,0,0,1,0-1.5H11.44L9.37,1.285a.748.748,0,0,1,0-1.06.737.737,0,0,1,1.06,0Z" transform="translate(2 7.895)" fill="#7e7e7e"/>
    <path id="Vector-3" data-name="Vector" d="M24,0V24H0V0Z" fill="#7e7e7e" opacity="0"/>
  </g>
</svg>
