<svg id="bar-chart" xmlns="http://www.w3.org/2000/svg" width="24" height="24" viewBox="0 0 24 24">
  <rect id="Rectangle_3485" data-name="Rectangle 3485" width="24" height="24" transform="translate(0 24) rotate(-90)" fill="#7b7b7b" opacity="0"/>
  <g id="Group_36489" data-name="Group 36489" transform="translate(3.548 3.02)">
    <path id="Path_16829" data-name="Path 16829" d="M1.056,17.96A1.056,1.056,0,0,1,0,16.9V1.056a1.056,1.056,0,0,1,2.113,0V16.9A1.057,1.057,0,0,1,1.056,17.96Z" transform="translate(7.395)" fill="#7b7b7b"/>
    <path id="Path_16830" data-name="Path 16830" d="M1.056,9.508A1.057,1.057,0,0,1,0,8.452v-7.4a1.056,1.056,0,0,1,2.113,0v7.4A1.056,1.056,0,0,1,1.056,9.508Z" transform="translate(14.791)" fill="#7b7b7b"/>
    <path id="Path_16831" data-name="Path 16831" d="M1.056,13.734A1.056,1.056,0,0,1,0,12.678V1.056a1.056,1.056,0,0,1,2.113,0V12.678A1.056,1.056,0,0,1,1.056,13.734Z" fill="#7b7b7b"/>
  </g>
</svg>
