<svg xmlns="http://www.w3.org/2000/svg" width="19" height="19" viewBox="0 0 19 19">
  <path id="tune_FILL0_wght400_GRAD0_opsz48" d="M120.792,232.836a.764.764,0,0,1-.564-.229.773.773,0,0,1-.228-.567.757.757,0,0,1,.228-.563.772.772,0,0,1,.564-.224h4.935a.764.764,0,0,1,.564.229.773.773,0,0,1,.228.567.758.758,0,0,1-.228.563.772.772,0,0,1-.564.224Zm0-13.089a.764.764,0,0,1-.564-.229.773.773,0,0,1-.228-.567.757.757,0,0,1,.228-.563.772.772,0,0,1,.564-.224h9.315a.764.764,0,0,1,.564.229.773.773,0,0,1,.228.567.758.758,0,0,1-.228.563.772.772,0,0,1-.564.224Zm8.1,15.253a.757.757,0,0,1-.563-.228.772.772,0,0,1-.224-.564v-4.354a.764.764,0,0,1,.229-.564.773.773,0,0,1,.567-.228.757.757,0,0,1,.563.228.772.772,0,0,1,.224.564v1.4h8.524a.764.764,0,0,1,.564.229.773.773,0,0,1,.228.567.758.758,0,0,1-.228.563.772.772,0,0,1-.564.224h-8.524v1.372a.764.764,0,0,1-.229.564A.773.773,0,0,1,128.888,235Zm-3.167-6.544a.757.757,0,0,1-.563-.228.772.772,0,0,1-.224-.564v-1.372h-4.143a.764.764,0,0,1-.564-.229A.773.773,0,0,1,120,225.5a.757.757,0,0,1,.228-.563.772.772,0,0,1,.564-.224h4.143v-1.425a.764.764,0,0,1,.229-.564.773.773,0,0,1,.567-.228.757.757,0,0,1,.563.228.772.772,0,0,1,.224.564v4.381a.764.764,0,0,1-.229.564A.773.773,0,0,1,125.722,228.456Zm3.171-2.164a.764.764,0,0,1-.564-.229.773.773,0,0,1-.228-.567.757.757,0,0,1,.228-.563.772.772,0,0,1,.564-.224h9.315a.764.764,0,0,1,.564.229.773.773,0,0,1,.228.567.758.758,0,0,1-.228.563.772.772,0,0,1-.564.224Zm4.376-4.354a.758.758,0,0,1-.563-.228.772.772,0,0,1-.224-.564v-4.354a.764.764,0,0,1,.229-.564.773.773,0,0,1,.567-.228.758.758,0,0,1,.563.228.772.772,0,0,1,.224.564v1.372h4.143a.764.764,0,0,1,.564.229.773.773,0,0,1,.228.567.758.758,0,0,1-.228.563.772.772,0,0,1-.564.224h-4.143v1.4a.764.764,0,0,1-.229.564A.773.773,0,0,1,133.269,221.938Z" transform="translate(-120 -216)" fill="#474747"/>
</svg>
