<svg xmlns="http://www.w3.org/2000/svg" width="20" height="16" viewBox="0 0 20 16">
  <path id="mail_FILL1_wght400_GRAD0_opsz24" d="M4,20a1.925,1.925,0,0,1-1.412-.587A1.927,1.927,0,0,1,2,18V6a1.923,1.923,0,0,1,.588-1.412A1.923,1.923,0,0,1,4,4H20a2.006,2.006,0,0,1,2,2V18a2,2,0,0,1-2,2Zm8-7.175a.98.98,0,0,0,.262-.038,1.025,1.025,0,0,0,.263-.112L19.6,8.25a.828.828,0,0,0,.3-.312.866.866,0,0,0,.1-.413.815.815,0,0,0-.425-.75A.8.8,0,0,0,18.7,6.8L12,11,5.3,6.8a.78.78,0,0,0-.875-.013A.824.824,0,0,0,4,7.525a.913.913,0,0,0,.1.437.668.668,0,0,0,.3.288l7.075,4.425a1.025,1.025,0,0,0,.263.112.98.98,0,0,0,.262.038Z" transform="translate(-2 -4)" fill="#dbdbdb"/>
</svg>
