<svg xmlns="http://www.w3.org/2000/svg" width="17.78" height="20" viewBox="0 0 17.78 20">
  <path id="notifications_active_FILL1_wght400_GRAD0_opsz48" d="M125.622,183.825a.708.708,0,0,1-.538-.225.655.655,0,0,1-.187-.525,8.78,8.78,0,0,1,.813-3.087,8.647,8.647,0,0,1,1.863-2.588.789.789,0,0,1,1.1.075.718.718,0,0,1,.188.525.767.767,0,0,1-.238.525,7.389,7.389,0,0,0-1.512,2.088,7.188,7.188,0,0,0-.687,2.462.906.906,0,0,1-.275.538A.741.741,0,0,1,125.622,183.825Zm16.325,0a.7.7,0,0,1-.512-.212.94.94,0,0,1-.262-.538,7.387,7.387,0,0,0-2.15-4.55.767.767,0,0,1-.238-.525.718.718,0,0,1,.188-.525.742.742,0,0,1,.537-.263.692.692,0,0,1,.538.213,9.12,9.12,0,0,1,1.825,2.587,8.716,8.716,0,0,1,.8,3.063.655.655,0,0,1-.187.525A.708.708,0,0,1,141.947,183.825ZM126.522,193a.75.75,0,1,1,0-1.5h1.35v-7.65a6.068,6.068,0,0,1,1.238-3.713,5.3,5.3,0,0,1,3.262-2.087v-.725a1.228,1.228,0,0,1,.413-.95,1.488,1.488,0,0,1,1.975,0,1.228,1.228,0,0,1,.413.95v.725a5.348,5.348,0,0,1,3.275,2.087,6.028,6.028,0,0,1,1.25,3.713v7.65h1.325a.75.75,0,1,1,0,1.5Zm7.25,3a1.939,1.939,0,0,1-1.4-.587,1.906,1.906,0,0,1-.6-1.413h4a2.006,2.006,0,0,1-2,2Z" transform="translate(-124.895 -176)" fill="#9a9a9a"/>
</svg>
