<svg xmlns="http://www.w3.org/2000/svg" width="18.236" height="23" viewBox="0 0 18.236 23">
  <g id="Group_44081" data-name="Group 44081" transform="translate(0)">
    <g id="Group_44075" data-name="Group 44075" transform="translate(0 4.537)">
      <g id="Group_44074" data-name="Group 44074" transform="translate(0)">
        <path id="Path_80933" data-name="Path 80933" d="M71.249,115.434l-1.027-12.942a1.617,1.617,0,0,0-1.605-1.487H66.587v3.006a.674.674,0,1,1-1.347,0v-3.006h-6.2v3.006a.674.674,0,1,1-1.347,0v-3.006H55.667a1.617,1.617,0,0,0-1.605,1.485l-1.027,12.946a3.745,3.745,0,0,0,3.734,4.032H67.515a3.745,3.745,0,0,0,3.733-4.033Zm-6.072-6.591-3.484,3.484a.673.673,0,0,1-.953,0l-1.633-1.633a.674.674,0,0,1,.952-.952l1.157,1.156,3.008-3.008a.674.674,0,1,1,.952.953Z" transform="translate(-53.023 -101.005)" fill="#adadad"/>
      </g>
    </g>
    <g id="Group_44077" data-name="Group 44077" transform="translate(4.673)">
      <g id="Group_44076" data-name="Group 44076" transform="translate(0)">
        <path id="Path_80934" data-name="Path 80934" d="M161.485,0a4.451,4.451,0,0,0-4.446,4.446v.091h1.347V4.446a3.1,3.1,0,1,1,6.2,0v.091h1.347V4.446A4.451,4.451,0,0,0,161.485,0Z" transform="translate(-157.039)" fill="#adadad"/>
      </g>
    </g>
  </g>
</svg>
