<svg xmlns="http://www.w3.org/2000/svg" width="32.601" height="20.15" viewBox="0 0 32.601 20.15">
  <g id="Group_111" data-name="Group 111" transform="translate(0 0)">
    <rect id="Rectangle_39" data-name="Rectangle 39" width="8.816" height="15.842" transform="translate(11.893 2.154)" fill="#f16522"/>
    <path id="Path_90" data-name="Path 90" d="M1585.8-271.764a10.059,10.059,0,0,1,3.848-7.921,10.031,10.031,0,0,0-6.226-2.154,10.075,10.075,0,0,0-10.074,10.075,10.075,10.075,0,0,0,10.074,10.075,10.03,10.03,0,0,0,6.226-2.154,10.058,10.058,0,0,1-3.848-7.921" transform="translate(-1573.348 281.839)" fill="#e41b24"/>
    <path id="Path_91" data-name="Path 91" d="M1689.843-271.765a10.074,10.074,0,0,1-10.074,10.075,10.027,10.027,0,0,1-6.226-2.154,10.057,10.057,0,0,0,3.847-7.921,10.058,10.058,0,0,0-3.847-7.921,10.031,10.031,0,0,1,6.226-2.153,10.074,10.074,0,0,1,10.074,10.074m-.961,6.243v-.324h.131v-.066h-.333v.066h.131v.324Zm.647,0v-.391h-.1l-.117.269-.117-.269h-.1v.391h.072v-.295l.11.255h.075l.11-.255v.3Z" transform="translate(-1657.242 281.839)" fill="#f89e1c"/>
  </g>
</svg>
