<svg xmlns="http://www.w3.org/2000/svg" width="18.598" height="21.946" viewBox="0 0 18.598 21.946">
  <g id="paypal-icon" transform="translate(0 0)">
    <path id="Path_92" data-name="Path 92" d="M15.87,2.471C14.853,1.313,13.017.816,10.667.816H3.847a.977.977,0,0,0-.965.824L.042,19.65a.585.585,0,0,0,.579.677h4.21L5.889,13.62l-.033.21a.973.973,0,0,1,.961-.824h2c3.931,0,7.008-1.6,7.907-6.215q.04-.2.07-.4h0a4.359,4.359,0,0,0-.925-3.921" transform="translate(-0.035 -0.816)" fill="#27346a"/>
    <path id="Path_93" data-name="Path 93" d="M7.5,5.777a.856.856,0,0,1,.368-.083h5.347a11.158,11.158,0,0,1,1.763.128q.227.036.45.086.317.07.626.171a4.827,4.827,0,0,1,.739.313,4.359,4.359,0,0,0-.925-3.921C14.853,1.313,13.017.816,10.667.816H3.846a.976.976,0,0,0-.964.824L.042,19.649a.585.585,0,0,0,.578.677H4.831L7.025,6.414A.854.854,0,0,1,7.5,5.777Z" transform="translate(-0.035 -0.816)" fill="#27346a"/>
    <path id="Path_94" data-name="Path 94" d="M73.92,77.671c-.9,4.618-3.977,6.215-7.907,6.215h-2a.972.972,0,0,0-.96.824l-1.316,8.339a.512.512,0,0,0,.506.592h3.549a.854.854,0,0,0,.843-.721l.035-.181.669-4.24.043-.234a.854.854,0,0,1,.843-.721h.531c3.438,0,6.13-1.4,6.917-5.437a4.631,4.631,0,0,0-.71-4.088,3.391,3.391,0,0,0-.972-.75C73.969,77.4,73.947,77.535,73.92,77.671Z" transform="translate(-57.23 -71.696)" fill="#2790c3"/>
    <path id="Path_95" data-name="Path 95" d="M89.86,68.022q-.21-.061-.424-.109t-.45-.086a11.1,11.1,0,0,0-1.764-.129H81.875a.854.854,0,0,0-.843.721l-1.136,7.2-.033.21a.972.972,0,0,1,.96-.824h2c3.931,0,7.008-1.6,7.907-6.215.027-.137.049-.269.07-.4a4.855,4.855,0,0,0-.739-.312q-.1-.033-.2-.063" transform="translate(-74.042 -62.821)" fill="#1f264f"/>
  </g>
</svg>
