<svg xmlns="http://www.w3.org/2000/svg" width="25.765" height="25" viewBox="0 0 25.765 25">
  <path id="person_FILL1_wght400_GRAD0_opsz48" d="M172.882,287.077a5.792,5.792,0,1,1,4.348-1.691A5.885,5.885,0,0,1,172.882,287.077ZM162.415,300A2.405,2.405,0,0,1,160,297.585v-1.369a4.43,4.43,0,0,1,.765-2.617,4.911,4.911,0,0,1,1.973-1.651,30.259,30.259,0,0,1,5.173-1.812,20.912,20.912,0,0,1,4.972-.6,20.033,20.033,0,0,1,4.952.624,34.3,34.3,0,0,1,5.153,1.791A4.854,4.854,0,0,1,185,293.6a4.43,4.43,0,0,1,.765,2.617v1.369A2.405,2.405,0,0,1,183.349,300Z" transform="translate(-160 -275)"/>
</svg>
