<svg xmlns="http://www.w3.org/2000/svg" xmlns:xlink="http://www.w3.org/1999/xlink" width="26.248" height="37.606" viewBox="0 0 26.248 37.606">
  <defs>
    <clipPath id="clip-path">
      <rect id="Rectangle_49" data-name="Rectangle 49" width="26.248" height="37.606" fill="#ec54a5"/>
    </clipPath>
  </defs>
  <g id="pharmacy" transform="translate(-263 -352)">
    <g id="Group_138" data-name="Group 138" transform="translate(263 352)">
      <g id="Group_137" data-name="Group 137" clip-path="url(#clip-path)">
        <path id="Path_48" data-name="Path 48" d="M11.84,49.948c0-.512.013-.947,0-1.382a.994.994,0,0,0-.978-.981,8.885,8.885,0,0,1-3.356-.8,25.3,25.3,0,0,1-4-2.024A14.9,14.9,0,0,1,.265,41.82a2.29,2.29,0,0,1-.265-.7,2.365,2.365,0,0,1,.7-.24q7.381-.023,14.762-.014c3.322,0,6.644-.005,9.966.01.261,0,.641.07.754.245.19.3-.091.59-.312.809a31.343,31.343,0,0,1-2.381,2.281,20.09,20.09,0,0,1-3.509,2.06,18.458,18.458,0,0,1-4.366,1.368c-.376.086-.766.1-1.147.17a.6.6,0,0,0-.56.669c-.011.79-.027.79-.775,1.037l-1.295.429" transform="translate(0 -28.487)" fill="#ec54a5"/>
        <path id="Path_49" data-name="Path 49" d="M33.178,11.407c-1.173,0-2.24.005-3.306-.007a.651.651,0,0,1-.37-.155,7.247,7.247,0,0,1-2.684-7.139A5.069,5.069,0,0,1,30.5.27a4.661,4.661,0,0,1,5.518,1.777,3.834,3.834,0,0,1,.674,1.772c.08.559.136.641.683.707a1.572,1.572,0,0,1,1.343,1.364,1.575,1.575,0,0,1-.9,1.73,1.239,1.239,0,0,0-.66.672,5.668,5.668,0,0,1-.387.77.643.643,0,0,1-1.19.028c-.187-.28-.318-.6-.507-.876a2.763,2.763,0,0,0-.473-.491,4.543,4.543,0,0,1-.814-.692,1.62,1.62,0,0,1,1-2.505c.523-.128.528-.136.5-.68a2.415,2.415,0,0,0-2.241-2.163,3.628,3.628,0,0,0-3.864,3.752,5.027,5.027,0,0,0,1.427,3.6c.654.7,1.4,1.317,2.1,1.97.125.115.258.222.469.4" transform="translate(-18.569 0)" fill="#ec54a5"/>
        <path id="Path_50" data-name="Path 50" d="M32.209,110.441c-1.359,0-2.718.006-4.077-.008a1.551,1.551,0,0,1-.481-.176c.12-.144.211-.338.363-.424a5.312,5.312,0,0,0,3.1-4.9c.009-.207.034-.334.272-.346.5-.025.995-.075,1.493-.086.084,0,.214.128.248.224a1.773,1.773,0,0,1,.052.483,5.363,5.363,0,0,0,3.054,4.61.57.57,0,0,1,.162.091c.091.106.167.225.249.339-.119.065-.238.184-.357.185-1.359.013-2.718.008-4.078.008v0" transform="translate(-19.273 -72.836)" fill="#ec54a5"/>
        <path id="Path_51" data-name="Path 51" d="M38.017,64.116A3.262,3.262,0,0,1,36.778,66.1a16.036,16.036,0,0,1-4.159,2.1c-1.046.37-2.092.739-3.125,1.142a2.685,2.685,0,0,0-.873.557.64.64,0,0,0,.27,1.144.515.515,0,0,1,.415.595c-.012,1.077.1.875-.871.731a3.142,3.142,0,0,1-.912-.317,1.776,1.776,0,0,1-.7-2.717A4.741,4.741,0,0,1,29.1,67.685c1.3-.518,2.616-.977,3.9-1.513a6.129,6.129,0,0,0,2.171-1.289,1.024,1.024,0,0,1,.469-.2c.733-.194,1.47-.376,2.205-.56a1.01,1.01,0,0,1,.172,0" transform="translate(-18.442 -44.688)" fill="#ec54a5"/>
        <path id="Path_52" data-name="Path 52" d="M30.815,94.5c-.438-.16-.869-.288-1.273-.475a1.211,1.211,0,0,1-.74-.966.878.878,0,0,1,.431-.955,4.754,4.754,0,0,1,2.248-.617c1.068-.091,2.135-.189,3.2-.3A1.345,1.345,0,0,0,35.2,91a.529.529,0,0,0-.027-.957.4.4,0,0,1-.271-.457c.012-.369,0-.739,0-1.12a2.134,2.134,0,0,1,1.758,2.026,1.488,1.488,0,0,1-.668,1.237A3.421,3.421,0,0,1,34.2,92.3c-1.119.088-2.239.158-3.359.235a.3.3,0,0,0-.075.005c-.231.081-.567.015-.617.367s.232.451.5.547c.31.112.38.516.164,1.049" transform="translate(-20.064 -61.66)" fill="#ec54a5"/>
        <path id="Path_53" data-name="Path 53" d="M39.031,85.646c0-.407,0-.778,0-1.15,0-.638,0-1.276-.025-1.914a.339.339,0,0,1,.263-.386c.5-.178,1.008-.362,1.506-.556.247-.1.326.013.328.233.005,1.139.011,2.278,0,3.416,0,.089-.122.248-.2.254-.6.049-1.211.07-1.875.1" transform="translate(-27.188 -56.881)" fill="#ec54a5"/>
        <path id="Path_54" data-name="Path 54" d="M49.043,106.462c1,.442,2.263,2.148,2.168,2.963-.126-.141-.218-.241-.307-.343-.366-.421-.729-.845-1.1-1.261a.8.8,0,0,0-.25-.156c-.168-.081-.462-.125-.487-.234a4.553,4.553,0,0,1-.023-.969" transform="translate(-34.174 -74.206)" fill="#ec54a5"/>
      </g>
    </g>
  </g>
</svg>
