<svg xmlns="http://www.w3.org/2000/svg" xmlns:xlink="http://www.w3.org/1999/xlink" width="26.004" height="26" viewBox="0 0 26.004 26">
  <defs>
    <clipPath id="clip-path">
      <path id="Ellipse_1" data-name="Ellipse 1" d="M0,13A13,13,0,1,0,13,0,13,13,0,0,0,0,13Z" fill="#f26060"/>
    </clipPath>
    <clipPath id="clip-path-3">
      <path id="Ellipse_3" data-name="Ellipse 3" d="M0,12.433A12.462,12.462,0,1,0,12.462,0,12.448,12.448,0,0,0,0,12.433Z" fill="#f26060"/>
    </clipPath>
  </defs>
  <g id="ايقونة_المزودين" data-name="ايقونة المزودين" transform="translate(0.004)">
    <circle id="Ellipse_6" data-name="Ellipse 6" cx="13" cy="13" r="13" transform="translate(-0.004)" fill="#dedee8"/>
    <g id="Mask_group" data-name="Mask group">
      <g id="Ellipse_1-2" data-name="Ellipse 1" clip-path="url(#clip-path)">
        <g id="Group_112" data-name="Group 112" transform="translate(2.313 2.648)">
          <g id="Group_2" data-name="Group 2" transform="translate(4.202 13.882)">
            <g id="Group_1" data-name="Group 1">
              <path id="Path_1" data-name="Path 1" d="M12.457,6.105a3.071,3.071,0,0,0,.654-3.566C12.164.327,9.4,0,6.735,0,2.673,0-2.179,1.406,1.058,6.1,1.058,6.105,5.088,8.787,12.457,6.105Z" transform="translate(0 0)" fill="#ff9a40"/>
            </g>
          </g>
          <g id="Group_4" data-name="Group 4" transform="translate(12.531 15.52)">
            <g id="Group_3" data-name="Group 3">
              <path id="Path_2" data-name="Path 2" d="M.122,1.819A.121.121,0,0,0,.193,1.8a.122.122,0,0,0,.044-.061A3.324,3.324,0,0,1,1.362.221.122.122,0,0,0,1.314,0a.121.121,0,0,0-.09.018A3.519,3.519,0,0,0,.006,1.659a.123.123,0,0,0,.037.131.121.121,0,0,0,.042.023A.123.123,0,0,0,.122,1.819Z" transform="translate(0 0)" fill="#e96d17"/>
            </g>
          </g>
          <g id="Group_6" data-name="Group 6" transform="translate(10.807 16.537)">
            <g id="Group_5" data-name="Group 5">
              <path id="Path_3" data-name="Path 3" d="M.121,2.446a.121.121,0,0,0,.1-.056C1.283.729,4.437.248,4.468.243A.121.121,0,0,0,4.548.2.123.123,0,0,0,4.523.024.121.121,0,0,0,4.433,0C4.3.021,1.139.5.019,2.258a.123.123,0,0,0,.04.171.121.121,0,0,0,.062.017Z" transform="translate(0 0)" fill="#e96d17"/>
            </g>
          </g>
          <g id="Group_8" data-name="Group 8" transform="translate(0 17.53)">
            <g id="Group_7" data-name="Group 7">
              <path id="Path_4" data-name="Path 4" d="M0,6.68H21.565s-.217-2.707-1.518-3.231c-.526-.212-1.732-.815-2.983-1.46-1.748-.9-3.584-1.88-3.771-1.981L13.277,0l-.165.037q-.309.07-.621.119t-.618.081A10.225,10.225,0,0,1,8.466,0H8.461S7.051.731,5.478,1.528l-.609.308c-1.39.7-2.782,1.385-3.35,1.613C.217,3.973,0,6.68,0,6.68Z" transform="translate(0)" fill="#ff9a40"/>
            </g>
          </g>
          <g id="Group_19" data-name="Group 19" transform="translate(7.711 18.769)">
            <g id="Group_13" data-name="Group 13" transform="translate(0.224)">
              <g id="Group_12" data-name="Group 12">
                <g id="Group_11" data-name="Group 11">
                  <g id="Group_10" data-name="Group 10">
                    <g id="Group_9" data-name="Group 9">
                      <path id="Path_5" data-name="Path 5" d="M1.846,2a6.85,6.85,0,0,0,2.87-.637A6.519,6.519,0,0,0,6.478.2a.115.115,0,0,0,0-.162.113.113,0,0,0-.161,0A6.423,6.423,0,0,1,4.613,1.155a6.584,6.584,0,0,1-4.471.389.113.113,0,0,0-.086.012.115.115,0,0,0,.029.209A6.929,6.929,0,0,0,1.846,2Z" transform="translate(0)" fill="#e96d17"/>
                    </g>
                  </g>
                </g>
              </g>
            </g>
            <g id="Group_18" data-name="Group 18" transform="translate(0 2.187)">
              <g id="Group_17" data-name="Group 17">
                <g id="Group_16" data-name="Group 16">
                  <g id="Group_15" data-name="Group 15">
                    <g id="Group_14" data-name="Group 14">
                      <path id="Path_6" data-name="Path 6" d="M2.629.909A6.1,6.1,0,0,0,3.886.775.114.114,0,0,0,3.958.726.115.115,0,0,0,3.925.567.113.113,0,0,0,3.84.551,4.868,4.868,0,0,1,.182.023a.113.113,0,0,0-.16.025A.115.115,0,0,0,.049.208,4.619,4.619,0,0,0,2.629.909Z" transform="translate(0 0)" fill="#e96d17"/>
                    </g>
                  </g>
                </g>
              </g>
            </g>
          </g>
          <g id="Group_107" data-name="Group 107" transform="translate(3.856)">
            <g id="Group_30" data-name="Group 30" transform="translate(4.495 14.794)">
              <g id="Group_24" data-name="Group 24">
                <g id="Group_23" data-name="Group 23">
                  <g id="Group_22" data-name="Group 22">
                    <g id="Group_21" data-name="Group 21">
                      <g id="Group_20" data-name="Group 20">
                        <path id="Path_7" data-name="Path 7" d="M0,3.289A2.283,2.283,0,0,0,2.366,4.626c2.267,0,2.8-1.216,2.8-1.216a9.938,9.938,0,0,1-.424-1.446h0A7.831,7.831,0,0,1,4.562.158L.58,0C.543.339.483.739.415,1.141.234,2.207,0,3.289,0,3.289Z" fill="#ffb8a1"/>
                      </g>
                    </g>
                  </g>
                </g>
              </g>
              <g id="Group_29" data-name="Group 29" transform="translate(0.414 0)">
                <g id="Group_28" data-name="Group 28">
                  <g id="Group_27" data-name="Group 27">
                    <g id="Group_26" data-name="Group 26">
                      <g id="Group_25" data-name="Group 25">
                        <path id="Path_8" data-name="Path 8" d="M0,1.14a6.234,6.234,0,0,0,4.329.824A7.833,7.833,0,0,1,4.148.158L.164,0C.127.338.067.738,0,1.14Z" fill="#3f2037"/>
                      </g>
                    </g>
                  </g>
                </g>
              </g>
            </g>
            <g id="Group_47" data-name="Group 47" transform="translate(10.199 8.722)">
              <g id="Group_46" data-name="Group 46">
                <g id="Group_35" data-name="Group 35">
                  <g id="Group_34" data-name="Group 34">
                    <g id="Group_33" data-name="Group 33">
                      <g id="Group_32" data-name="Group 32">
                        <g id="Group_31" data-name="Group 31">
                          <path id="Path_9" data-name="Path 9" d="M.377,1.005S1.609-.683,2.568.316,1.678,4.8,0,4.037Z" fill="#ffb8a1"/>
                        </g>
                      </g>
                    </g>
                  </g>
                </g>
                <g id="Group_40" data-name="Group 40" transform="translate(0.88 0.872)">
                  <g id="Group_39" data-name="Group 39">
                    <g id="Group_38" data-name="Group 38">
                      <g id="Group_37" data-name="Group 37">
                        <g id="Group_36" data-name="Group 36">
                          <path id="Path_10" data-name="Path 10" d="M.085,2.128a.085.085,0,0,0,.056-.021.086.086,0,0,0,.028-.053,3.179,3.179,0,0,1,1.1-1.9A.086.086,0,0,0,1.227,0a.085.085,0,0,0-.063.017A3.306,3.306,0,0,0,0,2.03a.086.086,0,0,0,.016.063.085.085,0,0,0,.056.033Z" transform="translate(0 0)" fill="#ff8a8a"/>
                        </g>
                      </g>
                    </g>
                  </g>
                </g>
                <g id="Group_45" data-name="Group 45" transform="translate(1.138 1.752)">
                  <g id="Group_44" data-name="Group 44">
                    <g id="Group_43" data-name="Group 43">
                      <g id="Group_42" data-name="Group 42">
                        <g id="Group_41" data-name="Group 41">
                          <path id="Path_11" data-name="Path 11" d="M.085.4A.085.085,0,0,0,.156.367C.279.183.65.164.781.173A.085.085,0,0,0,.845.153.086.086,0,0,0,.825.009.085.085,0,0,0,.792,0C.768,0,.218-.031.015.271A.086.086,0,0,0,.041.393.085.085,0,0,0,.085.4Z" transform="translate(0 0)" fill="#ff8a8a"/>
                        </g>
                      </g>
                    </g>
                  </g>
                </g>
              </g>
            </g>
            <g id="Group_64" data-name="Group 64" transform="translate(0.615 8.722)">
              <g id="Group_63" data-name="Group 63">
                <g id="Group_52" data-name="Group 52">
                  <g id="Group_51" data-name="Group 51">
                    <g id="Group_50" data-name="Group 50">
                      <g id="Group_49" data-name="Group 49">
                        <g id="Group_48" data-name="Group 48">
                          <path id="Path_12" data-name="Path 12" d="M2.454,1.005S1.222-.683.263.316,1.153,4.8,2.831,4.037Z" transform="translate(0)" fill="#ffb8a1"/>
                        </g>
                      </g>
                    </g>
                  </g>
                </g>
                <g id="Group_57" data-name="Group 57" transform="translate(0.648 0.871)">
                  <g id="Group_56" data-name="Group 56">
                    <g id="Group_55" data-name="Group 55">
                      <g id="Group_54" data-name="Group 54">
                        <g id="Group_53" data-name="Group 53">
                          <path id="Path_13" data-name="Path 13" d="M1.218,2.129H1.23A.085.085,0,0,0,1.286,2.1.086.086,0,0,0,1.3,2.032,3.305,3.305,0,0,0,.139.02.085.085,0,0,0,.017.034.086.086,0,0,0,.036.156a3.187,3.187,0,0,1,1.1,1.9.086.086,0,0,0,.029.052.085.085,0,0,0,.056.021Z" transform="translate(0)" fill="#ff8a8a"/>
                        </g>
                      </g>
                    </g>
                  </g>
                </g>
                <g id="Group_62" data-name="Group 62" transform="translate(0.825 1.753)">
                  <g id="Group_61" data-name="Group 61">
                    <g id="Group_60" data-name="Group 60">
                      <g id="Group_59" data-name="Group 59">
                        <g id="Group_58" data-name="Group 58">
                          <path id="Path_14" data-name="Path 14" d="M.783.4A.085.085,0,0,0,.858.359a.086.086,0,0,0,0-.088C.651-.031.1,0,.076,0A.085.085,0,0,0,.02.032.086.086,0,0,0,.027.15.085.085,0,0,0,.087.173c.132-.008.5.011.626.195A.085.085,0,0,0,.783.4Z" transform="translate(0 0)" fill="#ff8a8a"/>
                        </g>
                      </g>
                    </g>
                  </g>
                </g>
              </g>
            </g>
            <g id="Group_69" data-name="Group 69" transform="translate(2.03 4.667)">
              <g id="Group_68" data-name="Group 68">
                <g id="Group_67" data-name="Group 67">
                  <g id="Group_66" data-name="Group 66">
                    <g id="Group_65" data-name="Group 65">
                      <path id="Path_15" data-name="Path 15" d="M3.754.14a4.818,4.818,0,0,1,5.79,5.773c-.549,2.459-1.753,5.56-4.712,5.63C1.749,11.616.511,8.237.071,5.674a4.841,4.841,0,0,1,.606-3.3,4.792,4.792,0,0,1,2.6-2.1Q3.509.2,3.754.14Z" transform="translate(0)" fill="#ffb8a1"/>
                    </g>
                  </g>
                </g>
              </g>
            </g>
            <g id="Group_71" data-name="Group 71" transform="translate(6.146 10.445)">
              <g id="Group_70" data-name="Group 70">
                <path id="Path_16" data-name="Path 16" d="M.47,2.256A1.222,1.222,0,0,0,.954,2.14a.122.122,0,0,0,.072-.128L.779.107A.122.122,0,0,0,.733.025.121.121,0,0,0,.562.048.123.123,0,0,0,.538.139L.773,1.95A.606.606,0,0,1,.19,1.927a.121.121,0,0,0-.169.033.123.123,0,0,0,.034.17.721.721,0,0,0,.415.127Z" transform="translate(0 0)" fill="#ff8a8a"/>
              </g>
            </g>
            <g id="Group_73" data-name="Group 73" transform="translate(5.183 13.095)">
              <g id="Group_72" data-name="Group 72">
                <path id="Path_17" data-name="Path 17" d="M1.658.862A2.793,2.793,0,0,0,2.891.568.123.123,0,0,0,2.864.345a.121.121,0,0,0-.092.01A2.237,2.237,0,0,1,.2.033a.121.121,0,0,0-.2.047A.123.123,0,0,0,.039.212a2.318,2.318,0,0,0,1.619.65Z" transform="translate(0 0)" fill="#ff8a8a"/>
              </g>
            </g>
            <g id="Group_75" data-name="Group 75" transform="translate(5.977 14.284)">
              <g id="Group_74" data-name="Group 74">
                <path id="Path_18" data-name="Path 18" d="M.666.372A1.868,1.868,0,0,0,1.177.3.122.122,0,0,0,1.248.24.123.123,0,0,0,1.2.075.121.121,0,0,0,1.1.066h0A1.352,1.352,0,0,1,.181.016.121.121,0,0,0,.016.062.123.123,0,0,0,.062.229,1.224,1.224,0,0,0,.666.372Z" transform="translate(0 0)" fill="#ff8a8a"/>
              </g>
            </g>
            <g id="Group_77" data-name="Group 77" transform="translate(7.919 8.182)">
              <g id="Group_76" data-name="Group 76">
                <path id="Path_19" data-name="Path 19" d="M1.29,1.042A3.277,3.277,0,0,0,.275.672.317.317,0,0,1,.047.522.321.321,0,0,1,.018.249L.032.211A.317.317,0,0,1,.161.049.314.314,0,0,1,.362,0a2.22,2.22,0,0,1,1.3.536.317.317,0,0,1-.374.5Z" transform="translate(0 0)" fill="#3f2037"/>
              </g>
            </g>
            <g id="Group_79" data-name="Group 79" transform="translate(3.716 8.182)">
              <g id="Group_78" data-name="Group 78">
                <path id="Path_20" data-name="Path 20" d="M.465,1.042A3.278,3.278,0,0,1,1.48.672a.317.317,0,0,0,.228-.15A.321.321,0,0,0,1.737.249L1.723.211A.317.317,0,0,0,1.594.049.314.314,0,0,0,1.393,0a2.22,2.22,0,0,0-1.3.536.317.317,0,0,0,.374.5Z" transform="translate(0 0)" fill="#3f2037"/>
              </g>
            </g>
            <g id="Group_81" data-name="Group 81" transform="translate(8.319 10.879)" opacity="0.5">
              <g id="Group_80" data-name="Group 80" opacity="0.5">
                <path id="Path_21" data-name="Path 21" d="M0,.543c0,.3.55.543,1.229.543S2.458.843,2.458.543,1.908,0,1.229,0,0,.243,0,.543Z" fill="#ff8a8a" opacity="0.5"/>
              </g>
            </g>
            <g id="Group_83" data-name="Group 83" transform="translate(2.538 10.879)" opacity="0.5">
              <g id="Group_82" data-name="Group 82" opacity="0.5">
                <path id="Path_22" data-name="Path 22" d="M0,.543c0,.3.55.543,1.229.543S2.458.843,2.458.543,1.908,0,1.229,0,0,.243,0,.543Z" fill="#ff8a8a" opacity="0.5"/>
              </g>
            </g>
            <g id="Group_88" data-name="Group 88" transform="translate(1.598)">
              <g id="Group_87" data-name="Group 87">
                <g id="Group_86" data-name="Group 86">
                  <g id="Group_85" data-name="Group 85">
                    <g id="Group_84" data-name="Group 84">
                      <path id="Path_23" data-name="Path 23" d="M9.847,11.115a22.863,22.863,0,0,0,.447-4.41c-.2-.82-.618-.67-.618-.67s3.492-2.88,1.756-4.512c-1.257-1.182-2.7,1.347-2.7,1.347S9.444.383,8.426.042C7.158-.384,6.584,2.6,6.584,2.6S6.688.372,5.657.417c-1.43.061-.624,1.723-2.175,2.371S-.412,3.766.432,6.38c0,0-1.138-.05.278,4.616a2.8,2.8,0,0,0,.519-1.761,4.966,4.966,0,0,1,.078-1.386,2.025,2.025,0,0,0,.846-1.535s3.122,1.865,6,.2c0,0-.181,1.074.725,1.236a6.361,6.361,0,0,1,.393,1.692A3.756,3.756,0,0,0,9.82,11.07Z" transform="translate(0 0)" fill="#3f2037"/>
                    </g>
                  </g>
                </g>
              </g>
            </g>
            <g id="Group_93" data-name="Group 93" transform="translate(0 3.409)">
              <g id="Group_92" data-name="Group 92">
                <g id="Group_91" data-name="Group 91">
                  <g id="Group_90" data-name="Group 90">
                    <g id="Group_89" data-name="Group 89">
                      <path id="Path_24" data-name="Path 24" d="M2.319,1.332S1.826-.363,1.029.071c-.569.31.756,1.6.756,1.6S.671,1.064.121,1.491s.91.932,1.751.788S2.319,1.332,2.319,1.332Z" transform="translate(0 0)" fill="#3f2037"/>
                    </g>
                  </g>
                </g>
              </g>
            </g>
            <g id="Group_106" data-name="Group 106" transform="translate(4.728 9.563)">
              <g id="Group_99" data-name="Group 99" transform="translate(3.505)">
                <g id="Group_98" data-name="Group 98">
                  <g id="Group_97" data-name="Group 97">
                    <g id="Group_96" data-name="Group 96">
                      <g id="Group_95" data-name="Group 95">
                        <g id="Group_94" data-name="Group 94">
                          <path id="Path_25" data-name="Path 25" d="M0,.595c-.006.331.116.6.271.6S.558.936.563.6.448,0,.292,0,.006.264,0,.595Z" transform="translate(0 0)" fill="#3f2037"/>
                        </g>
                      </g>
                    </g>
                  </g>
                </g>
              </g>
              <g id="Group_105" data-name="Group 105">
                <g id="Group_104" data-name="Group 104">
                  <g id="Group_103" data-name="Group 103">
                    <g id="Group_102" data-name="Group 102">
                      <g id="Group_101" data-name="Group 101">
                        <g id="Group_100" data-name="Group 100">
                          <path id="Path_26" data-name="Path 26" d="M.563.595c.006.331-.116.6-.271.6S.006.936,0,.6.116,0,.271,0,.558.264.563.595Z" transform="translate(0 0)" fill="#3f2037"/>
                        </g>
                      </g>
                    </g>
                  </g>
                </g>
              </g>
            </g>
          </g>
          <g id="Group_109" data-name="Group 109" transform="translate(13.934 20.685)">
            <g id="Group_108" data-name="Group 108">
              <path id="Path_27" data-name="Path 27" d="M0,.122v3.4H.243V.122A.123.123,0,0,0,.207.036a.121.121,0,0,0-.172,0A.123.123,0,0,0,0,.122Z" transform="translate(0 0)" fill="#fff"/>
            </g>
          </g>
          <g id="Group_111" data-name="Group 111" transform="translate(7.18 20.687)">
            <g id="Group_110" data-name="Group 110">
              <path id="Path_28" data-name="Path 28" d="M0,.12v3.4H.243V.12A.123.123,0,0,0,.213.042.121.121,0,0,0,.007.082.111.111,0,0,0,0,.12Z" fill="#fff"/>
            </g>
          </g>
        </g>
      </g>
    </g>
  </g>
</svg>
