<svg xmlns="http://www.w3.org/2000/svg" width="16" height="16" viewBox="0 0 16 16">
  <path id="quiz" d="M89.26,186.8a.819.819,0,1,0-.58-.24A.79.79,0,0,0,89.26,186.8Zm-.02-2.52a.447.447,0,0,0,.33-.13.628.628,0,0,0,.17-.33,1.327,1.327,0,0,1,.22-.55,3.917,3.917,0,0,1,.56-.63,3.988,3.988,0,0,0,.76-.92,1.907,1.907,0,0,0,.2-.9,1.946,1.946,0,0,0-.63-1.5,2.34,2.34,0,0,0-1.65-.58,2.389,2.389,0,0,0-1.18.3,2.261,2.261,0,0,0-.86.84.343.343,0,0,0-.02.34.571.571,0,0,0,.28.28.451.451,0,0,0,.36.01.675.675,0,0,0,.3-.23,1.444,1.444,0,0,1,.5-.47,1.292,1.292,0,0,1,.62-.15,1.386,1.386,0,0,1,.96.34,1.1,1.1,0,0,1,.38.86,1.244,1.244,0,0,1-.18.67,3.018,3.018,0,0,1-.64.67,2.741,2.741,0,0,0-.67.77,2.115,2.115,0,0,0-.27.85.377.377,0,0,0,.12.32A.463.463,0,0,0,89.24,184.28ZM83.6,189.6a1.23,1.23,0,0,1-1.2-1.2V177.2a1.23,1.23,0,0,1,1.2-1.2H94.8a1.23,1.23,0,0,1,1.2,1.2v11.2a1.23,1.23,0,0,1-1.2,1.2ZM81.2,192a1.23,1.23,0,0,1-1.2-1.2V179a.6.6,0,1,1,1.2,0v11.8H93a.6.6,0,1,1,0,1.2Z" transform="translate(-80 -176)" fill="#9a9a9a"/>
</svg>
