<svg xmlns="http://www.w3.org/2000/svg" width="13.317" height="16" viewBox="0 0 13.317 16">
  <path id="bookmarks_FILL1_wght400_GRAD0_opsz48" d="M132.762,150.612a.538.538,0,0,1-.555-.555V137.11h-9.562a.555.555,0,1,1,0-1.11h9.562a1.138,1.138,0,0,1,1.11,1.11v12.947a.538.538,0,0,1-.555.555Zm-11.985,1.332a.507.507,0,0,1-.527-.037.526.526,0,0,1-.25-.462V139.329a1.138,1.138,0,0,1,1.11-1.11h8.878a1.1,1.1,0,0,1,.786.333,1.051,1.051,0,0,1,.342.777v12.115a.526.526,0,0,1-.25.462.507.507,0,0,1-.527.037l-4.79-2.016Z" transform="translate(-120 -136)" fill="#9a9a9a"/>
</svg>
