<svg xmlns="http://www.w3.org/2000/svg" width="22.262" height="26" viewBox="0 0 22.262 26">
  <path id="sculpture" d="M21.931,2l.159.016a1.309,1.309,0,0,1,1.125,1.5c-.589,3.353.12,7.04,1.954,10.958,1.608,3.436,1.122,7.052-.622,10.483a17.378,17.378,0,0,1-.865,1.515l-.318.473c-.152.216-.293.4-.419.555a1.418,1.418,0,0,1-1.921.228,1.257,1.257,0,0,1-.337-1.689l.1-.135a13.839,13.839,0,0,0,1.3-2.077,10.151,10.151,0,0,0,1.2-6.348,8.2,8.2,0,0,0-5.137,3.054,11.891,11.891,0,0,0-1.786,6.227,1.374,1.374,0,0,1-2.736,0,11.891,11.891,0,0,0-1.786-6.227,8.169,8.169,0,0,0-5.088-3.043,10.158,10.158,0,0,0,1.2,6.336,13.655,13.655,0,0,0,1.005,1.682l.292.4a1.257,1.257,0,0,1-.24,1.824A1.418,1.418,0,0,1,7.091,27.5c-.125-.153-.266-.339-.419-.555l-.318-.473a17.393,17.393,0,0,1-.865-1.515c-1.744-3.431-2.23-7.047-.622-10.483C6.7,10.554,7.41,6.867,6.821,3.514a1.309,1.309,0,0,1,1.125-1.5A1.363,1.363,0,0,1,9.522,3.086,20.477,20.477,0,0,1,7.605,15.013a10.8,10.8,0,0,1,6.5,4.053,9.865,9.865,0,0,1,.893,1.517,9.843,9.843,0,0,1,.893-1.517A10.817,10.817,0,0,1,22.427,15,20.47,20.47,0,0,1,20.515,3.086,1.355,1.355,0,0,1,21.931,2ZM14.993,9.8a1.3,1.3,0,1,1-1.369,1.3A1.336,1.336,0,0,1,14.993,9.8Z" transform="translate(-3.887 -2)" fill="#ec54a5"/>
</svg>
