<svg xmlns="http://www.w3.org/2000/svg" width="21.716" height="26" viewBox="0 0 21.716 26">
  <path id="skin" d="M59.31,15.559a1.775,1.775,0,0,1-.773.255,1.815,1.815,0,0,1-1.073-.256.366.366,0,0,0-.378.627,2.571,2.571,0,0,0,1.309.367c.066,0,.134,0,.2-.009a2.511,2.511,0,0,0,1.094-.36.366.366,0,1,0-.382-.625Zm2.177-9.027a4.214,4.214,0,0,0,.653-2.265,4.289,4.289,0,1,0-8.51.758,9.114,9.114,0,0,0-5.509,8.605A9.477,9.477,0,0,0,51,20.3a8.861,8.861,0,0,0,3.6,4.108A4.5,4.5,0,0,0,56.741,25a3.739,3.739,0,0,0,2.015-.6l.569-.357a6.574,6.574,0,0,0,2.683-3.816,10.239,10.239,0,0,0,2.548-6.6,9.5,9.5,0,0,0-3.07-7.1ZM57.851.732a3.55,3.55,0,0,1,3.557,3.535,3.487,3.487,0,0,1-.493,1.8,7.616,7.616,0,0,0-4.576-1.547,7.445,7.445,0,0,0-2.006.275A3.54,3.54,0,0,1,57.851.732Zm3.82,17.709c-.005.03-.012.067-.019.109-.4,2.357-1.317,4-2.716,4.873l-.57.358a3.273,3.273,0,0,1-3.42-.014,8.179,8.179,0,0,1-3.292-3.8l-.011-.027a5.385,5.385,0,0,1-.47-1.969l-.088-5.123a5.439,5.439,0,0,0,2.409.358,4.927,4.927,0,0,0,1.367-.326,2.439,2.439,0,0,1,1.189-.2,4.615,4.615,0,0,1,2.394,1.154c.078.069.161.146.249.228a4.089,4.089,0,0,0,2.162,1.231h0a2.774,2.774,0,0,0,.655.069q.106,0,.211-.011a9.785,9.785,0,0,1-.056,3.093Zm.739.02a10.552,10.552,0,0,0,.014-3.4A.547.547,0,0,0,61.8,14.6a2.044,2.044,0,0,1-.785-.028l-.026-.005-.012,0a3.38,3.38,0,0,1-1.782-1.044c-.092-.086-.18-.168-.267-.244a5.251,5.251,0,0,0-2.81-1.332,3.149,3.149,0,0,0-1.5.244,4.246,4.246,0,0,1-1.182.286,4.806,4.806,0,0,1-2.322-.408.547.547,0,0,0-.762.512l.093,5.4a4.737,4.737,0,0,0,.051.6,8.562,8.562,0,0,1-1.638-4.952c0-4.622,3.358-8.382,7.485-8.382s7.485,3.76,7.485,8.382A9.093,9.093,0,0,1,62.7,17.96q-.137.255-.288.5ZM48.95,19.576a.366.366,0,0,0-.274-.354A2.688,2.688,0,0,1,46.75,17.3a.366.366,0,0,0-.709,0,2.688,2.688,0,0,1-1.926,1.926.366.366,0,0,0,0,.709,2.688,2.688,0,0,1,1.926,1.926.366.366,0,0,0,.709,0,2.688,2.688,0,0,1,1.926-1.926.366.366,0,0,0,.274-.354ZM46.4,20.812a3.426,3.426,0,0,0-1.236-1.236A3.426,3.426,0,0,0,46.4,18.34a3.426,3.426,0,0,0,1.236,1.236A3.426,3.426,0,0,0,46.4,20.812Zm11.418-.3a.366.366,0,0,0-.516.048,1.129,1.129,0,0,1-.66.391,1.263,1.263,0,0,1-1.045-.4.366.366,0,0,0-.549.485,2.031,2.031,0,0,0,1.428.662,1.737,1.737,0,0,0,.288-.024,1.844,1.844,0,0,0,1.1-.646A.366.366,0,0,0,57.813,20.512ZM55.289,15.68a.366.366,0,0,0-.5-.121,1.775,1.775,0,0,1-.773.255,1.815,1.815,0,0,1-1.073-.256.366.366,0,1,0-.378.627,2.571,2.571,0,0,0,1.309.367c.066,0,.134,0,.2-.009a2.511,2.511,0,0,0,1.094-.36.366.366,0,0,0,.121-.5Zm-3.95,7.1A1.726,1.726,0,0,1,50.1,21.54a.366.366,0,0,0-.709,0,1.726,1.726,0,0,1-1.237,1.237.366.366,0,0,0,0,.709,1.726,1.726,0,0,1,1.237,1.237.366.366,0,0,0,.709,0,1.726,1.726,0,0,1,1.237-1.237.366.366,0,0,0,0-.709Zm-1.591.986a2.463,2.463,0,0,0-.631-.631,2.463,2.463,0,0,0,.631-.631,2.463,2.463,0,0,0,.631.631,2.463,2.463,0,0,0-.631.631Z" transform="translate(-43.34 0.5)" fill="#ec54a5" stroke="#ec54a5" stroke-width="1"/>
</svg>
