<svg xmlns="http://www.w3.org/2000/svg" width="25.848" height="25" viewBox="0 0 25.848 25">
  <path id="spa" d="M96.779,223.62a1.421,1.421,0,0,1-.537,1.09,1.259,1.259,0,0,1-1.155.244,15.081,15.081,0,0,1-7.564-4.36,14.761,14.761,0,0,1-3.758-8.979,1.287,1.287,0,0,1,.407-1.106,1.266,1.266,0,0,1,1.122-.358q5.758.781,8.67,4.555A13.721,13.721,0,0,1,96.779,223.62Zm-1.074-23.067a1.138,1.138,0,0,1,1.952,0,24.3,24.3,0,0,1,2.554,5.124,16.243,16.243,0,0,1,1.122,4.929,7.56,7.56,0,0,0-2.684,2,14.611,14.611,0,0,0-2,2.684,17.939,17.939,0,0,0-1.968-2.684,6.949,6.949,0,0,0-2.652-2,15.894,15.894,0,0,1,1.139-4.945A26.087,26.087,0,0,1,95.705,200.553Zm12.363,9.6a1.266,1.266,0,0,1,1.122.358,1.287,1.287,0,0,1,.407,1.106,14.453,14.453,0,0,1-3.644,8.817,15.733,15.733,0,0,1-7.288,4.425,18.808,18.808,0,0,0-.081-3.888,15.52,15.52,0,0,0-.83-3.6,12.352,12.352,0,0,1,3.725-4.587A13.553,13.553,0,0,1,108.068,210.151Z" transform="translate(-83.758 -200)" fill="#ec54a5"/>
</svg>
