<svg xmlns="http://www.w3.org/2000/svg" width="16" height="16" viewBox="0 0 16 16">
  <g id="vuesax_bulk_verify" data-name="vuesax/bulk/verify" transform="translate(-748 -444)">
    <g id="verify" transform="translate(748 444)">
      <path id="Vector" d="M5.83.3A1.343,1.343,0,0,1,7.51.3L8.563,1.2a1.478,1.478,0,0,0,.84.313h1.133A1.292,1.292,0,0,1,11.823,2.8V3.935a1.5,1.5,0,0,0,.313.84l.907,1.053a1.343,1.343,0,0,1,0,1.68l-.907,1.053a1.478,1.478,0,0,0-.313.84v1.133a1.292,1.292,0,0,1-1.287,1.287H9.4a1.5,1.5,0,0,0-.84.313l-1.053.907a1.343,1.343,0,0,1-1.68,0l-1.053-.907a1.478,1.478,0,0,0-.84-.313H2.783A1.292,1.292,0,0,1,1.5,10.535V9.4a1.517,1.517,0,0,0-.307-.833L.29,7.5a1.342,1.342,0,0,1,0-1.667l.9-1.06A1.517,1.517,0,0,0,1.5,3.942V2.795A1.292,1.292,0,0,1,2.783,1.508H3.937a1.5,1.5,0,0,0,.84-.313Z" transform="translate(1.337 1.338)" fill="#78bf1b" opacity="0.4"/>
      <path id="Vector-2" data-name="Vector" d="M2.112,4.218a.5.5,0,0,1-.353-.147L.145,2.458a.5.5,0,1,1,.707-.707l1.26,1.26L4.978.145a.5.5,0,0,1,.707.707l-3.22,3.22A.5.5,0,0,1,2.112,4.218Z" transform="translate(5.082 5.895)" fill="#78bf1b"/>
      <path id="Vector-3" data-name="Vector" d="M0,0H16V16H0Z" fill="none" opacity="0"/>
    </g>
  </g>
</svg>
