<svg xmlns="http://www.w3.org/2000/svg" width="18" height="18" viewBox="0 0 18 18">
  <path id="support_FILL1_wght400_GRAD0_opsz48" d="M89,194a8.764,8.764,0,0,1-3.51-.709,8.986,8.986,0,0,1-4.781-4.781,9.046,9.046,0,0,1,0-7.02,8.986,8.986,0,0,1,4.781-4.781,9.046,9.046,0,0,1,7.02,0,8.986,8.986,0,0,1,4.781,4.781,9.046,9.046,0,0,1,0,7.02,8.986,8.986,0,0,1-4.781,4.781A8.764,8.764,0,0,1,89,194Zm-2.722-1.8,1.418-3.375a4.05,4.05,0,0,1-1.519-.934,4.1,4.1,0,0,1-1-1.564l-3.375,1.35a9.119,9.119,0,0,0,1.845,2.768A7.51,7.51,0,0,0,86.278,192.2Zm-1.125-8.505a4.519,4.519,0,0,1,1.012-1.575,3.888,3.888,0,0,1,1.507-.945l-1.35-3.375a8.574,8.574,0,0,0-2.857,1.879,6.826,6.826,0,0,0-1.665,2.666ZM89,187.7a2.689,2.689,0,1,0-1.912-.788A2.6,2.6,0,0,0,89,187.7Zm2.722,4.5a7.976,7.976,0,0,0,2.7-1.789,8.242,8.242,0,0,0,1.778-2.689l-3.375-1.4a4.07,4.07,0,0,1-1,1.586,3.816,3.816,0,0,1-1.519.911Zm1.1-8.528,3.375-1.395a8.194,8.194,0,0,0-4.478-4.478l-1.372,3.375a3.759,3.759,0,0,1,1.485.934A4.569,4.569,0,0,1,92.825,183.672Z" transform="translate(-80 -176)" fill="#9a9a9a"/>
</svg>
