<svg xmlns="http://www.w3.org/2000/svg" width="24.965" height="25" viewBox="0 0 24.965 25">
  <path id="teeth" d="M139.417,181a5.564,5.564,0,0,1,5.548,5.548q0,.381-.052,1.023t-.156,1.474l-1.907,13.974a3.1,3.1,0,0,1-1.231,2.184,3.749,3.749,0,0,1-2.306.8,3.34,3.34,0,0,1-1.439-.324,2.953,2.953,0,0,1-1.162-.994L133,199.273a.448.448,0,0,0-.225-.179.865.865,0,0,0-.329-.064,1.938,1.938,0,0,0-.555.312l-3.606,5.236a3.08,3.08,0,0,1-1.208,1.069,3.374,3.374,0,0,1-1.5.353,3.66,3.66,0,0,1-2.288-.8,3.159,3.159,0,0,1-1.214-2.213l-1.872-13.939q-.1-.832-.156-1.474T120,186.548A5.564,5.564,0,0,1,125.548,181a5.009,5.009,0,0,1,1.994.329q.746.329,1.439.711a15.85,15.85,0,0,0,1.474.711,6.41,6.41,0,0,0,4.057,0,15.849,15.849,0,0,0,1.474-.711q.693-.381,1.456-.711A5.034,5.034,0,0,1,139.417,181Z" transform="translate(-120 -181)" fill="#ec54a5"/>
</svg>
