<svg xmlns="http://www.w3.org/2000/svg" width="22.866" height="25" viewBox="0 0 22.866 25">
  <path id="vaccines_FILL1_wght400_GRAD0_opsz48" d="M95.787,201a.875.875,0,0,1-.65-.263.892.892,0,0,1-.259-.652v-6.1H93.049a1.876,1.876,0,0,1-1.829-1.829V182.4h-.3a.882.882,0,0,1-.652-.264.893.893,0,0,1-.263-.655.875.875,0,0,1,.263-.65.892.892,0,0,1,.652-.259h3.963v-2.744h-.915a.882.882,0,0,1-.652-.264.893.893,0,0,1-.263-.655.875.875,0,0,1,.263-.65.892.892,0,0,1,.652-.259h3.659a.882.882,0,0,1,.652.264.893.893,0,0,1,.263.655.875.875,0,0,1-.263.65.892.892,0,0,1-.652.259h-.915v2.744h3.963a.882.882,0,0,1,.652.264.893.893,0,0,1,.263.655.875.875,0,0,1-.263.65.892.892,0,0,1-.652.259h-.3v9.756a1.876,1.876,0,0,1-1.829,1.829H96.707v6.1a.882.882,0,0,1-.264.652A.893.893,0,0,1,95.787,201Zm-2.739-8.841h5.488V189.72H96.1a.61.61,0,0,1,0-1.22h2.439v-2.439H96.1a.61.61,0,0,1,0-1.22h2.439V182.4H93.049Zm12.5,8.232a1.876,1.876,0,0,1-1.829-1.829v-8.11a3.506,3.506,0,0,1,.244-1.479,3.8,3.8,0,0,1,.64-.93,5.231,5.231,0,0,0,.762-.945,1.5,1.5,0,0,0,.183-.732v-.915h-.3a.882.882,0,0,1-.652-.264.893.893,0,0,1-.263-.655.857.857,0,0,1,.274-.65.9.9,0,0,1,.64-.259h6.1a.882.882,0,0,1,.652.264.893.893,0,0,1,.263.655.875.875,0,0,1-.263.65.892.892,0,0,1-.652.259h-.3v.915a1.527,1.527,0,0,0,.229.762,5.842,5.842,0,0,0,.808,1.006,3.145,3.145,0,0,1,.595.884,3.839,3.839,0,0,1,.2,1.433v8.11a1.876,1.876,0,0,1-1.829,1.829Zm0-9.146h5.488v-.793a1.636,1.636,0,0,0-.3-.976q-.3-.427-.671-.884a4.523,4.523,0,0,1-.655-1.067,3.071,3.071,0,0,1-.2-1.159v-.915h-1.829v.915a3.2,3.2,0,0,1-.183,1.128,4.105,4.105,0,0,1-.64,1.067q-.366.457-.686.9a1.649,1.649,0,0,0-.32.991Zm0,7.317h5.488v-2.439h-5.488Z" transform="translate(-90 -176)" fill="#ec54a5"/>
</svg>
