<svg xmlns="http://www.w3.org/2000/svg" width="26.424" height="25" viewBox="0 0 26.424 25">
  <path id="account_balance_wallet_FILL1_wght400_GRAD0_opsz48" d="M138.472,230.722a2.128,2.128,0,0,0,1.545-.677,2.165,2.165,0,0,0,.677-1.58,2.072,2.072,0,0,0-.677-1.528,2.139,2.139,0,0,0-3.09,0,2.072,2.072,0,0,0-.677,1.528,2.165,2.165,0,0,0,.677,1.58A2.128,2.128,0,0,0,138.472,230.722Zm-3.958,4.271a2.534,2.534,0,0,1-1.875-.694,2.488,2.488,0,0,1-.694-1.84v-7.882a2.475,2.475,0,0,1,.694-1.858,2.571,2.571,0,0,1,1.875-.677h9.34a2.571,2.571,0,0,1,1.875.677,2.475,2.475,0,0,1,.694,1.858v7.882a2.488,2.488,0,0,1-.694,1.84,2.534,2.534,0,0,1-1.875.694ZM122.083,241a2.018,2.018,0,0,1-1.441-.625,1.973,1.973,0,0,1-.642-1.458V218.083A2.2,2.2,0,0,1,122.083,216h20.833a1.973,1.973,0,0,1,1.458.642,2.018,2.018,0,0,1,.625,1.441v1.875H134.514a4.511,4.511,0,0,0-4.653,4.618v7.882a4.511,4.511,0,0,0,4.653,4.618H145v1.84A2.136,2.136,0,0,1,142.917,241Z" transform="translate(-120 -216)"/>
</svg>
